<?xml version="1.0" encoding="utf-8"?>
<!-- Generator: Adobe Illustrator 17.1.0, SVG Export Plug-In . SVG Version: 6.00 Build 0)  -->
<!DOCTYPE svg PUBLIC "-//W3C//DTD SVG 1.1//EN" "http://www.w3.org/Graphics/SVG/1.1/DTD/svg11.dtd">
<svg version="1.1" id="Layer_1" xmlns="http://www.w3.org/2000/svg" xmlns:xlink="http://www.w3.org/1999/xlink" x="0px" y="0px"
	 width="1224px" height="792px" viewBox="0 0 1224 792" enable-background="new 0 0 1224 792" xml:space="preserve" shape-rendering="geometricPrecision">
<path fill="#F48120" d="M599.01202,366.883c7.87598-0.88101,15.84601-1.431,23.95697-1.431
	c0.10303,0,0.19098,0.01501,0.29401,0.01501C720.05902,328.453,783.078,279.086,831.68201,182.033
	C816.53198,79.093,728.11102,0,620.96503,0C509.15201,0,417.61801,86.08,408.59799,195.57401
	C440.67999,294.83701,507.897,332.651,599.01202,366.883z"/>
<path fill="#929497" d="M512.40399,396.60901c-5.63-77.28-68.34698-181.80499-103.806-201.035
	c-6.20901-0.543-12.46301-0.94701-18.81201-0.94701c-117.79501-0.007-213.263,95.48201-213.263,213.278
	c0,117.77298,95.46799,213.26297,213.263,213.26297c8.10999,0,16.08099-0.54999,23.95001-1.43103
	C454.23599,609.32202,510.52499,459.77499,512.40399,396.60901z"/>
<path fill="#84ADCA" d="M623.49799,426.41599c-0.85101,0.00699-1.67297,0.125-2.53198,0.125
	c-6.349,0-12.60199-0.40399-18.81201-0.94699c-80.37799,37.396-152.20398,126.375-188.418,194.14301
	C432.86301,717.883,519.21503,792,622.96899,792c107.68799,0,196.47699-79.88599,210.95801-183.56598
	C761.38898,514.98401,702.95697,472.634,623.49799,426.41599z"/>
<path fill="#ECCD83" d="M834.21399,181.89999c-0.85901,0-1.68103,0.117-2.53198,0.125
	c-31.172,9.189-112.10699,155.52902-100.15002,213.358c-18.38599,57.41901,53.44,209.11603,102.396,213.04303
	c0.09497,0,0.19098,0.01501,0.28601,0.01501c117.79498,0,213.26306-95.48999,213.26306-213.263
	C1047.47705,277.39001,952.00897,181.89999,834.21399,181.89999z"/>
<path fill="#DE6F1D" d="M623.263,365.46701c31.45099,19.79501,68.43597,34.26901,108.26801,29.91699
	c61.492-37.418,102.69702-104.87,102.69702-182.106c0-10.64301-1.03497-21.028-2.53998-31.25301
	C725.15997,183.28,637.63397,262.60101,623.263,365.46701z"/>
<path fill="#8E4A02" d="M512.40399,396.60901c38.85699,0.98401,65.125-8.125,86.61603-29.72601
	c-17.96002-92.14301-95.181-162.97099-190.422-171.30901c-0.48401,5.85699-0.89499,11.729-0.89499,17.711
	C407.702,291.358,449.79599,359.448,512.40399,396.60901z"/>
<path fill="#4F6B7F" d="M602.15399,425.59399c-21.94598-38.189-56.25201-37.64499-89.75-28.98499
	C450.91199,434.02701,409.707,501.48602,409.707,578.737c0,14.034,1.439,27.72198,4.03,41
	C514.43701,608.46301,593.79401,527.13098,602.15399,425.59399z"/>
<path fill="#848F6E" d="M731.53101,395.39099c-44.11902-1.54901-80.56799,4.345-108.04102,31.02499
	C638.625,529.25299,726.90698,608.28699,833.927,608.43396c1.35797-9.73199,2.30499-19.59003,2.30499-29.69598
	C836.23199,500.642,794.13898,432.552,731.53101,395.39099z"/>
<path fill="#96612A" d="M623.263,365.46701c-0.10303,0-0.19098-0.01501-0.29401-0.01501c-8.10999,0-16.08099,0.54999-23.95703,1.431
	c-11.83899,13.021-13.44598,46.79102,3.14099,58.70999c6.20898,0.543,12.46301,0.94699,18.81201,0.94699
	c0.85101,0,1.68103-0.117,2.53198-0.125C633.27399,416.88901,635.41699,375.61801,623.263,365.46701z"/>
<path fill="#58370A" d="M599.01202,366.883c-31.487,3.52301-60.79498,14.01901-86.61603,29.72601
	c26.73901,15.86801,57.14697,26.129,89.75,28.98499c0.48401-5.85001,0.89502-11.71399,0.89502-17.689
	C603.04901,393.85699,601.60303,380.168,599.01202,366.883z"/>
<path fill="#875223" d="M620.95801,395.185c0,10.64301,1.03497,21.01401,2.53998,31.23001
	c39.57599-0.46201,76.45099-11.802,108.04102-31.02499c-31.75201-18.841-68.67798-29.86499-108.26801-29.91699
	C621.90503,375.207,620.95801,385.07101,620.95801,395.185z"/>
</svg>
