<?xml version="1.0" encoding="utf-8"?>
<!-- Generator: Adobe Illustrator 17.1.0, SVG Export Plug-In . SVG Version: 6.00 Build 0)  -->
<!DOCTYPE svg PUBLIC "-//W3C//DTD SVG 1.1//EN" "http://www.w3.org/Graphics/SVG/1.1/DTD/svg11.dtd">
<svg version="1.1" id="Layer_1" xmlns="http://www.w3.org/2000/svg" xmlns:xlink="http://www.w3.org/1999/xlink" x="0px" y="0px"
	 width="167.815px" height="9.708px" viewBox="0 0 167.815 9.708" enable-background="new 0 0 167.815 9.708" xml:space="preserve">
<path fill="#F48120" d="M162.461,4.936V1.059h1.447c1.625,0,2.535,0.641,2.535,1.864s-1.074,1.909-2.311,1.954L162.461,4.936z
	 M162.461,5.786l1.864-0.119l2.386,3.847h1.104l-2.58-4.011c1.208-0.373,2.162-1.223,2.162-2.624c0-1.626-1.088-2.685-3.385-2.685
	h-2.505v9.32h0.954V5.786z M155.885,4.877c0,2.356-1.506,3.981-3.579,3.981c-2.117,0-3.653-1.64-3.653-4.041
	c0-2.356,1.506-3.967,3.594-3.967C154.364,0.85,155.885,2.476,155.885,4.877 M156.855,4.817c0-2.878-1.984-4.817-4.578-4.817
	c-2.67,0-4.593,2.029-4.593,4.877c0,2.878,1.983,4.831,4.578,4.831C154.931,9.708,156.855,7.665,156.855,4.817 M144.031,1.089V0.194
	h-7.516v0.895h3.28v8.425h0.955V1.089H144.031z M132.906,0.761C132.22,0.343,131.162,0,130.028,0c-2.609,0-4.503,1.909-4.503,4.877
	c0,2.952,1.804,4.831,4.503,4.831c1.089,0,2.118-0.313,2.804-0.76l-0.179-0.94c-0.641,0.477-1.596,0.835-2.61,0.835
	c-2.132,0-3.549-1.536-3.549-3.996c0-2.535,1.491-3.982,3.519-3.982c0.985,0,1.849,0.269,2.595,0.746L132.906,0.761z M121.411,9.514
	V8.635h-4.682V5.279h3.907V4.414h-3.907v-3.34h4.682v-0.88h-5.637v9.32H121.411z M106.082,4.936V1.059h1.446
	c1.626,0,2.535,0.641,2.535,1.864s-1.073,1.909-2.311,1.954L106.082,4.936z M106.082,5.786l1.864-0.119l2.386,3.847h1.103
	l-2.58-4.011c1.208-0.373,2.163-1.223,2.163-2.624c0-1.626-1.089-2.685-3.385-2.685h-2.506v9.32h0.955V5.786z M99.938,0.194h-0.939
	v9.32h0.939V0.194z M93.362,4.862c0,2.55-1.625,3.773-4.011,3.773H87.8V1.074h1.521C91.871,1.074,93.362,2.491,93.362,4.862
	 M94.316,4.787c0-2.744-1.879-4.593-4.935-4.593h-2.536v9.32h2.461C92.482,9.514,94.316,7.725,94.316,4.787 M77.332,9.514V8.635
	h-4.683V5.279h3.907V4.414h-3.907v-3.34h4.683v-0.88h-5.637v9.32H77.332z M67.594,0.194h-0.969L63.613,8.53l-3.027-8.336h-0.969
	l3.414,9.32h1.119L67.594,0.194z M55.471,0.194h-0.939v9.32h0.939V0.194z M50.207,1.089V0.194h-7.515v0.895h3.28v8.425h0.955V1.089
	H50.207z M37.831,5.98h-3.564l1.79-4.846L37.831,5.98z M36.638,0.194H35.52l-3.534,9.32h0.969l0.984-2.669h4.22l0.984,2.669h0.97
	L36.638,0.194z M28.273,9.514V8.635H23.59V5.279h3.907V4.414H23.59v-3.34h4.683v-0.88h-5.637v9.32H28.273z M12.943,4.936V1.059
	h1.447c1.625,0,2.535,0.641,2.535,1.864s-1.074,1.909-2.312,1.954L12.943,4.936z M12.943,5.786l1.864-0.119l2.386,3.847h1.104
	l-2.58-4.011c1.208-0.373,2.162-1.223,2.162-2.624c0-1.626-1.089-2.685-3.385-2.685h-2.505v9.32h0.954V5.786z M7.381,0.761
	C6.695,0.343,5.636,0,4.503,0C1.893,0,0,1.909,0,4.877c0,2.952,1.804,4.831,4.503,4.831c1.089,0,2.117-0.313,2.803-0.76l-0.178-0.94
	c-0.642,0.477-1.596,0.835-2.61,0.835c-2.133,0-3.549-1.536-3.549-3.996c0-2.535,1.491-3.982,3.519-3.982
	c0.984,0,1.849,0.269,2.595,0.746L7.381,0.761z"/>
</svg>
