<?xml version="1.0" encoding="utf-8"?>
<!-- Generator: Adobe Illustrator 17.1.0, SVG Export Plug-In . SVG Version: 6.00 Build 0)  -->
<!DOCTYPE svg PUBLIC "-//W3C//DTD SVG 1.1//EN" "http://www.w3.org/Graphics/SVG/1.1/DTD/svg11.dtd">
<svg version="1.1" id="Layer_1" xmlns="http://www.w3.org/2000/svg" xmlns:xlink="http://www.w3.org/1999/xlink" x="0px" y="0px"
	 width="300.167px" height="38.28px" viewBox="0 0 300.167 38.28" enable-background="new 0 0 300.167 38.28" xml:space="preserve">
<g>
	<g>
		<path fill="#231F20" d="M285.607,27.408h9.504v-0.532h-3.307V18.17c0-4.219,2.357-6.728,3.953-6.728
			c0.874,0,1.331,0.456,1.331,1.216c0,1.293-0.495,1.293-0.495,2.205c0,0.646,0.571,1.065,1.673,1.065
			c0.988,0,1.901-0.419,1.901-2.091c0-1.521-1.027-3.155-3.383-3.155c-3.194,0-4.562,2.775-4.98,4.257h-0.076V11.1h-6.121v0.532
			h2.927v15.244h-2.927V27.408z M269.831,17.448c0.228-3.307,1.103-6.31,4.524-6.31c1.977,0,3.345,0.95,3.345,4.371
			c0,0.647,0,1.217-0.076,1.939H269.831z M281.502,17.98c0-5.55-4.182-7.374-6.995-7.374c-4.79,0-8.553,4.257-8.553,8.743
			c0,5.17,3.687,8.591,8.781,8.591c5.094,0,6.12-3.611,6.463-4.714l-0.571-0.114c-0.38,1.217-1.368,4.296-5.854,4.296
			c-4.485,0-5.018-4.258-5.018-7.641c0-0.798,0.038-1.292,0.038-1.787H281.502z M250.14,11.632h2.927v12.089
			c0,2.661,1.293,4.219,5.094,4.219c3.079,0,3.916-2.243,4.182-3.535l-0.532-0.19c-0.304,1.672-1.407,3.193-3.194,3.193
			c-1.026,0-2.28-0.494-2.28-3.345V11.632h5.398V11.1h-5.398V5.892c-0.495,0.38-1.027,0.57-1.787,0.57
			c-0.874,0-1.102-0.114-1.483-0.266V11.1h-2.927V11.632z M237.406,27.408h9.123v-0.532h-2.927V0h-6.196v0.532h2.927v26.344h-2.927
			V27.408z M221.212,17.448c0.228-3.307,1.102-6.31,4.524-6.31c1.976,0,3.345,0.95,3.345,4.371c0,0.647,0,1.217-0.076,1.939H221.212
			z M232.882,17.98c0-5.55-4.181-7.374-6.994-7.374c-4.79,0-8.554,4.257-8.554,8.743c0,5.17,3.688,8.591,8.782,8.591
			c5.094,0,6.12-3.611,6.462-4.714l-0.57-0.114c-0.38,1.217-1.369,4.296-5.854,4.296c-4.486,0-5.018-4.258-5.018-7.641
			c0-0.798,0.038-1.292,0.038-1.787H232.882z M183.502,27.408h9.123v-0.532h-2.927v-8.439c0-5.246,3.269-7.223,5.436-7.223
			c1.521,0,2.509,1.064,2.509,3.269v12.393h-2.927v0.532h9.124v-0.532h-2.928v-9.694c0-4.105,2.813-5.968,5.322-5.968
			c1.635,0,2.623,1.026,2.623,2.737v12.925h-2.927v0.532h9.124v-0.532h-2.927v-10.53c0-3.726-1.787-5.664-5.55-5.664
			c-3.156,0-4.904,1.786-5.589,3.611h-0.076c-0.608-2.585-2.775-3.611-5.284-3.611c-2.813,0-4.865,1.406-5.93,4.409h-0.076V11.1
			h-6.12v0.532h2.927v15.244h-2.927V27.408z M166.966,27.408h0.418c0.152-0.266,0.342-0.532,0.912-0.532
			c1.141,0,2.585,1.064,4.828,1.064c3.84,0,6.044-2.623,6.044-5.398c0-2.319-1.71-3.687-4.067-4.486l-2.775-0.912
			c-2.205-0.684-3.383-1.368-3.383-3.003c0-1.825,1.406-3.003,3.839-3.003c2.585,0,3.535,2.015,4.258,4.295h0.418V11.1h-0.418
			c-0.114,0.19-0.266,0.304-0.609,0.304c-1.064,0-1.444-0.798-3.649-0.798c-3.155,0-5.474,2.166-5.474,5.018
			c0,3.345,2.205,4.105,3.763,4.637l2.966,1.027c1.292,0.456,2.47,1.026,2.47,2.965c0,2.205-1.482,3.155-3.117,3.155
			c-3.839,0-5.322-2.927-6.006-5.322h-0.418V27.408z M136.365,27.408h9.123v-0.532h-2.927v-8.591c0-4.03,2.775-7.071,6.044-7.071
			c1.977,0,2.889,1.406,2.889,3.383v12.279h-2.927v0.532h9.124v-0.532h-2.927v-11.1c0-3.536-2.319-5.094-5.664-5.094
			c-4.372,0-5.931,3.155-6.539,4.485h-0.076V11.1h-6.12v0.532h2.927v15.244h-2.927V27.408z M121.045,17.448
			c0.228-3.307,1.102-6.31,4.524-6.31c1.976,0,3.345,0.95,3.345,4.371c0,0.647,0,1.217-0.076,1.939H121.045z M132.715,17.98
			c0-5.55-4.181-7.374-6.994-7.374c-4.79,0-8.553,4.257-8.553,8.743c0,5.17,3.687,8.591,8.781,8.591c5.094,0,6.12-3.611,6.462-4.714
			l-0.57-0.114c-0.38,1.217-1.368,4.296-5.854,4.296c-4.486,0-5.018-4.258-5.018-7.641c0-0.798,0.038-1.292,0.038-1.787H132.715z
			 M93.751,27.408h9.123v-0.532h-2.927v-8.591c0-4.03,2.775-7.071,6.045-7.071c1.976,0,2.889,1.406,2.889,3.383v12.279h-2.927v0.532
			h9.123v-0.532h-2.927v-11.1c0-3.536-2.319-5.094-5.664-5.094c-4.144,0-5.93,2.889-6.463,4.257h-0.076V0h-6.196v0.532h2.927v26.344
			h-2.927V27.408z M89.751,23.112c-0.38,1.217-1.368,4.296-5.854,4.296c-4.106,0-5.018-3.611-5.018-7.945
			c0-7.755,2.813-8.325,5.056-8.325c1.521,0,2.889,0.646,2.889,1.825c0,0.646-0.532,1.824-0.532,2.546
			c0,0.913,0.95,1.255,1.825,1.255c1.254,0,1.976-0.76,1.976-1.825c0-3.117-3.459-4.333-6.158-4.333
			c-4.904,0-8.857,3.801-8.857,8.743c0,6.348,4.903,8.591,8.781,8.591c5.094,0,6.12-3.611,6.462-4.714L89.751,23.112z
			 M59.644,11.632h2.927v12.089c0,2.661,1.293,4.219,5.094,4.219c3.079,0,3.916-2.243,4.182-3.535l-0.532-0.19
			c-0.305,1.672-1.407,3.193-3.194,3.193c-1.026,0-2.281-0.494-2.281-3.345V11.632h5.398V11.1H65.84V5.892
			c-0.494,0.38-1.026,0.57-1.786,0.57c-0.875,0-1.103-0.114-1.483-0.266V11.1h-2.927V11.632z M43.488,17.448
			c0.228-3.307,1.103-6.31,4.524-6.31c1.977,0,3.345,0.95,3.345,4.371c0,0.647,0,1.217-0.076,1.939H43.488z M55.158,17.98
			c0-5.55-4.181-7.374-6.994-7.374c-4.79,0-8.553,4.257-8.553,8.743c0,5.17,3.687,8.591,8.781,8.591s6.12-3.611,6.462-4.714
			l-0.57-0.114c-0.38,1.217-1.368,4.296-5.854,4.296s-5.018-4.258-5.018-7.641c0-0.798,0.038-1.292,0.038-1.787H55.158z
			 M21.554,27.408h9.504v-0.532H27.75V18.17c0-4.219,2.357-6.728,3.954-6.728c0.874,0,1.33,0.456,1.33,1.216
			c0,1.293-0.494,1.293-0.494,2.205c0,0.646,0.57,1.065,1.673,1.065c0.988,0,1.9-0.419,1.9-2.091c0-1.521-1.026-3.155-3.383-3.155
			c-3.193,0-4.562,2.775-4.98,4.257h-0.076V11.1h-6.12v0.532h2.927v15.244h-2.927V27.408z M9.808,28.548
			c2.661,0,4.333,1.103,4.333,3.916c0,2.661-2.471,5.056-6.12,5.056c-2.319,0-5.132-1.103-5.132-4.714
			c0-2.623,1.483-3.459,2.813-4.258H9.808z M11.86,16.194c0,3.345-1.026,4.98-3.649,4.98c-3.155,0-3.953-1.939-3.953-4.98
			c0-3.574,1.33-5.056,3.915-5.056C11.518,11.138,11.86,13.875,11.86,16.194 M0,24.937c0,2.623,1.559,3.611,4.904,3.611v0.076
			c-2.129,0.799-4.448,2.433-4.448,5.094c0,2.699,2.889,4.562,6.805,4.562c4.371,0,8.591-3.117,8.591-7.527
			c0-3.649-2.281-5.284-5.816-5.284H4.03c-1.293,0-2.585-0.304-2.585-1.863c0-1.672,1.596-2.394,2.699-2.889
			c0.722,0.343,2.09,0.989,3.839,0.989c3.497,0,6.767-2.281,6.767-5.284c0-1.825-0.951-3.079-1.407-3.574
			c0.38-0.532,0.988-1.064,1.483-1.064c1.064,0,0.722,1.901,2.09,1.901c0.609,0,1.331-0.456,1.331-1.369
			c0-1.406-1.027-1.71-2.053-1.71c-1.635,0-2.699,0.988-3.269,1.938c-0.76-0.76-2.471-1.938-4.752-1.938
			c-2.965,0-6.766,2.128-6.766,5.702c0,1.71,0.76,3.117,2.204,4.105C2.281,21.022,0,22.2,0,24.937"/>
	</g>
</g>
</svg>
